<mxfile host="app.diagrams.net" agent="Mozilla/5.0 (Windows NT 10.0; Win64; x64) AppleWebKit/537.36 (KHTML, like Gecko) Chrome/131.0.0.0 Safari/537.36 Edg/131.0.0.0" version="25.0.3">
  <diagram name="第 1 页" id="iBCcbAIl5xJ82POdG3NF">
    <mxGraphModel dx="2066" dy="1141" grid="1" gridSize="10" guides="1" tooltips="1" connect="1" arrows="1" fold="1" page="1" pageScale="1" pageWidth="5000" pageHeight="5000" math="0" shadow="0">
      <root>
        <mxCell id="0" />
        <mxCell id="1" parent="0" />
        <mxCell id="y1nobqfwPycfZOGXGUGH-1" value="管理员" style="shape=umlActor;verticalLabelPosition=bottom;verticalAlign=top;html=1;outlineConnect=0;fontSize=16;" vertex="1" parent="1">
          <mxGeometry x="157" y="380" width="30" height="60" as="geometry" />
        </mxCell>
        <mxCell id="y1nobqfwPycfZOGXGUGH-4" value="基础数据的增删改查" style="ellipse;whiteSpace=wrap;html=1;fontSize=16;" vertex="1" parent="1">
          <mxGeometry x="280" y="124" width="240" height="50" as="geometry" />
        </mxCell>
        <mxCell id="y1nobqfwPycfZOGXGUGH-6" value="启动排课" style="ellipse;whiteSpace=wrap;html=1;fontSize=16;" vertex="1" parent="1">
          <mxGeometry x="280" y="194" width="240" height="50" as="geometry" />
        </mxCell>
        <mxCell id="y1nobqfwPycfZOGXGUGH-7" value="暂停排课" style="ellipse;whiteSpace=wrap;html=1;fontSize=16;" vertex="1" parent="1">
          <mxGeometry x="280" y="264" width="240" height="50" as="geometry" />
        </mxCell>
        <mxCell id="y1nobqfwPycfZOGXGUGH-8" value="调整排课参数" style="ellipse;whiteSpace=wrap;html=1;fontSize=16;" vertex="1" parent="1">
          <mxGeometry x="280" y="334" width="240" height="50" as="geometry" />
        </mxCell>
        <mxCell id="y1nobqfwPycfZOGXGUGH-9" value="查看排课结果" style="ellipse;whiteSpace=wrap;html=1;fontSize=16;" vertex="1" parent="1">
          <mxGeometry x="280" y="404" width="240" height="50" as="geometry" />
        </mxCell>
        <mxCell id="y1nobqfwPycfZOGXGUGH-10" value="审核课表" style="ellipse;whiteSpace=wrap;html=1;fontSize=16;" vertex="1" parent="1">
          <mxGeometry x="280" y="474" width="240" height="50" as="geometry" />
        </mxCell>
        <mxCell id="y1nobqfwPycfZOGXGUGH-11" value="发布课表" style="ellipse;whiteSpace=wrap;html=1;fontSize=16;" vertex="1" parent="1">
          <mxGeometry x="280" y="544" width="240" height="50" as="geometry" />
        </mxCell>
        <mxCell id="y1nobqfwPycfZOGXGUGH-12" value="发布课表" style="ellipse;whiteSpace=wrap;html=1;fontSize=16;" vertex="1" parent="1">
          <mxGeometry x="280" y="614" width="240" height="50" as="geometry" />
        </mxCell>
        <mxCell id="y1nobqfwPycfZOGXGUGH-13" value="处理异常信息及用户反馈" style="ellipse;whiteSpace=wrap;html=1;fontSize=16;" vertex="1" parent="1">
          <mxGeometry x="280" y="683" width="240" height="50" as="geometry" />
        </mxCell>
        <mxCell id="y1nobqfwPycfZOGXGUGH-15" value="" style="endArrow=none;html=1;rounded=0;entryX=0;entryY=0.5;entryDx=0;entryDy=0;exitX=1;exitY=0.3333333333333333;exitDx=0;exitDy=0;exitPerimeter=0;fontSize=16;" edge="1" parent="1" source="y1nobqfwPycfZOGXGUGH-1" target="y1nobqfwPycfZOGXGUGH-4">
          <mxGeometry relative="1" as="geometry">
            <mxPoint x="440" y="580" as="sourcePoint" />
            <mxPoint x="600" y="580" as="targetPoint" />
          </mxGeometry>
        </mxCell>
        <mxCell id="y1nobqfwPycfZOGXGUGH-16" value="" style="endArrow=none;html=1;rounded=0;entryX=0;entryY=0.5;entryDx=0;entryDy=0;exitX=1;exitY=0.3333333333333333;exitDx=0;exitDy=0;exitPerimeter=0;fontSize=16;" edge="1" parent="1" source="y1nobqfwPycfZOGXGUGH-1" target="y1nobqfwPycfZOGXGUGH-6">
          <mxGeometry relative="1" as="geometry">
            <mxPoint x="190" y="400" as="sourcePoint" />
            <mxPoint x="290" y="196" as="targetPoint" />
          </mxGeometry>
        </mxCell>
        <mxCell id="y1nobqfwPycfZOGXGUGH-17" value="" style="endArrow=none;html=1;rounded=0;entryX=0;entryY=0.5;entryDx=0;entryDy=0;exitX=1;exitY=0.3333333333333333;exitDx=0;exitDy=0;exitPerimeter=0;fontSize=16;" edge="1" parent="1" source="y1nobqfwPycfZOGXGUGH-1" target="y1nobqfwPycfZOGXGUGH-10">
          <mxGeometry relative="1" as="geometry">
            <mxPoint x="240" y="430" as="sourcePoint" />
            <mxPoint x="300" y="206" as="targetPoint" />
          </mxGeometry>
        </mxCell>
        <mxCell id="y1nobqfwPycfZOGXGUGH-18" value="" style="endArrow=none;html=1;rounded=0;entryX=0;entryY=0.5;entryDx=0;entryDy=0;exitX=1;exitY=0.3333333333333333;exitDx=0;exitDy=0;exitPerimeter=0;fontSize=16;" edge="1" parent="1" source="y1nobqfwPycfZOGXGUGH-1" target="y1nobqfwPycfZOGXGUGH-11">
          <mxGeometry relative="1" as="geometry">
            <mxPoint x="217" y="430" as="sourcePoint" />
            <mxPoint x="310" y="216" as="targetPoint" />
          </mxGeometry>
        </mxCell>
        <mxCell id="y1nobqfwPycfZOGXGUGH-19" value="" style="endArrow=none;html=1;rounded=0;entryX=0;entryY=0.5;entryDx=0;entryDy=0;exitX=1;exitY=0.3333333333333333;exitDx=0;exitDy=0;exitPerimeter=0;fontSize=16;" edge="1" parent="1" source="y1nobqfwPycfZOGXGUGH-1" target="y1nobqfwPycfZOGXGUGH-12">
          <mxGeometry relative="1" as="geometry">
            <mxPoint x="227" y="440" as="sourcePoint" />
            <mxPoint x="320" y="226" as="targetPoint" />
          </mxGeometry>
        </mxCell>
        <mxCell id="y1nobqfwPycfZOGXGUGH-20" value="" style="endArrow=none;html=1;rounded=0;entryX=0;entryY=0.5;entryDx=0;entryDy=0;exitX=1;exitY=0.3333333333333333;exitDx=0;exitDy=0;exitPerimeter=0;fontSize=16;" edge="1" parent="1" source="y1nobqfwPycfZOGXGUGH-1" target="y1nobqfwPycfZOGXGUGH-13">
          <mxGeometry relative="1" as="geometry">
            <mxPoint x="237" y="450" as="sourcePoint" />
            <mxPoint x="330" y="236" as="targetPoint" />
          </mxGeometry>
        </mxCell>
        <mxCell id="y1nobqfwPycfZOGXGUGH-21" value="" style="endArrow=none;html=1;rounded=0;exitX=1;exitY=0.3333333333333333;exitDx=0;exitDy=0;exitPerimeter=0;entryX=0;entryY=0.5;entryDx=0;entryDy=0;fontSize=16;" edge="1" parent="1" source="y1nobqfwPycfZOGXGUGH-1" target="y1nobqfwPycfZOGXGUGH-7">
          <mxGeometry relative="1" as="geometry">
            <mxPoint x="290" y="830" as="sourcePoint" />
            <mxPoint x="450" y="830" as="targetPoint" />
          </mxGeometry>
        </mxCell>
        <mxCell id="y1nobqfwPycfZOGXGUGH-22" value="" style="endArrow=none;html=1;rounded=0;exitX=1;exitY=0.3333333333333333;exitDx=0;exitDy=0;exitPerimeter=0;entryX=0;entryY=0.5;entryDx=0;entryDy=0;fontSize=16;" edge="1" parent="1" source="y1nobqfwPycfZOGXGUGH-1" target="y1nobqfwPycfZOGXGUGH-8">
          <mxGeometry relative="1" as="geometry">
            <mxPoint x="290" y="860" as="sourcePoint" />
            <mxPoint x="450" y="860" as="targetPoint" />
          </mxGeometry>
        </mxCell>
        <mxCell id="y1nobqfwPycfZOGXGUGH-23" value="" style="endArrow=none;html=1;rounded=0;exitX=1;exitY=0.3333333333333333;exitDx=0;exitDy=0;exitPerimeter=0;entryX=0;entryY=0.5;entryDx=0;entryDy=0;fontSize=16;" edge="1" parent="1" source="y1nobqfwPycfZOGXGUGH-1" target="y1nobqfwPycfZOGXGUGH-9">
          <mxGeometry relative="1" as="geometry">
            <mxPoint x="440" y="580" as="sourcePoint" />
            <mxPoint x="600" y="580" as="targetPoint" />
          </mxGeometry>
        </mxCell>
      </root>
    </mxGraphModel>
  </diagram>
</mxfile>
